<svg width="45" height="45" fill="none" xmlns="http://www.w3.org/2000/svg"><rect opacity=".1" x="1.229" y=".935" width="42.542" height="42.542" rx="21.271" fill="#091E42" stroke="#0A142F" stroke-width="1.12"/><g clip-path="url('#clip0_2033_273')"><path d="M23.064 18.239c-2.543 0-4.594 2.019-4.594 4.522s2.05 4.522 4.594 4.522c2.543 0 4.594-2.019 4.594-4.522s-2.051-4.522-4.594-4.522Zm0 7.462c-1.643 0-2.987-1.318-2.987-2.94 0-1.621 1.34-2.94 2.987-2.94s2.986 1.319 2.986 2.94c0 1.622-1.343 2.94-2.986 2.94Zm5.853-7.647a1.06 1.06 0 0 1-1.071 1.055 1.06 1.06 0 0 1-1.072-1.055c0-.583.48-1.055 1.072-1.055.591 0 1.071.472 1.071 1.055Zm3.043 1.07c-.068-1.413-.396-2.664-1.447-3.695-1.048-1.031-2.32-1.354-3.755-1.425-1.48-.083-5.913-.083-7.393 0-1.431.067-2.702.39-3.754 1.42-1.052 1.032-1.375 2.284-1.447 3.696-.084 1.457-.084 5.822 0 7.278.068 1.413.395 2.664 1.447 3.695 1.052 1.032 2.319 1.354 3.754 1.425 1.48.083 5.914.083 7.393 0 1.436-.067 2.707-.39 3.755-1.425 1.047-1.03 1.375-2.282 1.447-3.695.084-1.456.084-5.817 0-7.274Zm-1.911 8.836a3 3 0 0 1-1.703 1.677c-1.18.46-3.979.354-5.282.354-1.304 0-4.107.102-5.282-.354a3 3 0 0 1-1.703-1.677c-.468-1.16-.36-3.916-.36-5.199s-.104-4.042.36-5.2a3 3 0 0 1 1.703-1.676c1.18-.46 3.978-.354 5.282-.354 1.303 0 4.106-.102 5.282.354a3 3 0 0 1 1.703 1.677c.468 1.16.36 3.916.36 5.2 0 1.282.108 4.041-.36 5.198Z" fill="#172B4D"/></g><defs><clipPath id="clip0_2033_273"><path fill="#fff" transform="translate(14.104 12.69)" d="M0 0h17.912v20.151H0z"/></clipPath></defs></svg>