<svg width="44" height="45" fill="none" xmlns="http://www.w3.org/2000/svg"><rect opacity=".1" x=".894" y=".935" width="42.542" height="42.542" rx="21.271" fill="#091E42" stroke="#0A142F" stroke-width="1.12"/><path fill-rule="evenodd" clip-rule="evenodd" d="M18.247 29.482h-3.359V19.407h3.359v10.075ZM16.558 17.168h-.02c-1.002 0-1.65-.747-1.65-1.68 0-.953.668-1.679 1.69-1.679 1.02 0 1.65.726 1.669 1.679 0 .933-.648 1.68-1.69 1.68ZM30.562 29.482h-3.3v-5.267c0-1.322-.478-2.225-1.673-2.225-.912 0-1.455.609-1.694 1.196-.087.21-.108.504-.108.799v5.497h-3.3s.043-8.92 0-9.844h3.3v1.394c.438-.67 1.222-1.625 2.975-1.625 2.172 0 3.8 1.407 3.8 4.43v5.645Z" fill="#172B4D"/></svg>