<svg width="32" height="32" fill="none" xmlns="http://www.w3.org/2000/svg"><g clip-path="url('#clip0_2005_122')"><path d="M20.733 17.333c1 0 1.88-.546 2.334-1.373l4.773-8.653c.493-.88-.147-1.974-1.16-1.974H6.947L5.693 2.667h-4.36v2.666H4l4.8 10.12L7 18.707c-.973 1.786.307 3.96 2.333 3.96h16V20h-16l1.467-2.667h9.933ZM8.213 8h16.2l-3.68 6.667h-9.36L8.213 8Zm1.12 16a2.663 2.663 0 0 0-2.653 2.667 2.663 2.663 0 0 0 2.653 2.666c1.467 0 2.667-1.2 2.667-2.666C12 25.2 10.8 24 9.333 24Zm13.334 0a2.663 2.663 0 0 0-2.654 2.667 2.663 2.663 0 0 0 2.654 2.666c1.466 0 2.666-1.2 2.666-2.666 0-1.467-1.2-2.667-2.666-2.667Z" fill="#494961"/></g><defs><clipPath id="clip0_2005_122"><path fill="#fff" d="M0 0h32v32H0z"/></clipPath></defs></svg>