<svg width="44" height="45" fill="none" xmlns="http://www.w3.org/2000/svg"><rect opacity=".1" x=".564" y=".935" width="42.542" height="42.542" rx="21.271" fill="#091E42" stroke="#0A142F" stroke-width="1.12"/><path fill-rule="evenodd" clip-rule="evenodd" d="m21.625 19.324.031.533-.526-.065c-1.914-.25-3.586-1.098-5.005-2.522l-.694-.707-.18.522c-.378 1.163-.136 2.391.653 3.217.42.457.326.522-.4.25-.252-.086-.473-.152-.494-.119-.074.076.179 1.065.379 1.457.273.543.83 1.076 1.44 1.391l.515.25-.61.01c-.588 0-.61.012-.546.24.21.707 1.04 1.457 1.966 1.783l.652.228-.568.348c-.84.5-1.83.783-2.818.804-.473.011-.862.055-.862.087 0 .109 1.283.718 2.03.957 2.24.707 4.9.402 6.898-.805 1.42-.858 2.84-2.565 3.502-4.217.357-.88.715-2.49.715-3.261 0-.5.031-.566.62-1.163.347-.348.673-.729.736-.838.105-.206.095-.206-.442-.021-.893.326-1.02.282-.578-.207.326-.348.715-.978.715-1.163 0-.032-.158.022-.336.12-.19.108-.61.271-.926.37l-.568.184-.515-.359c-.284-.195-.683-.413-.894-.478-.536-.152-1.356-.13-1.84.044-1.314.489-2.145 1.75-2.05 3.13Z" fill="#172B4D"/></svg>