<svg width="44" height="45" fill="none" xmlns="http://www.w3.org/2000/svg"><rect opacity=".1" x=".898" y=".935" width="42.542" height="42.542" rx="21.271" fill="#091E42" stroke="#0A142F" stroke-width="1.12"/><path d="M26.647 29.11h-9.329c-2.799 0-4.665-1.773-4.665-4.432v-5.317c0-2.66 1.866-4.432 4.665-4.432h9.33c2.798 0 4.664 1.773 4.664 4.432v5.317c0 2.66-1.866 4.432-4.665 4.432Z" stroke="#091E42" stroke-width="1.12" stroke-miterlimit="10" stroke-linecap="round" stroke-linejoin="round"/><path d="m22.17 19.99 2.332 1.33c.84.531.84 1.329 0 1.86l-2.333 1.33c-.933.532-1.679.089-1.679-.886v-2.659c0-1.152.746-1.507 1.68-.975Z" stroke="#091E42" stroke-width="1.12" stroke-miterlimit="10" stroke-linecap="round" stroke-linejoin="round"/></svg>