<?xml version="1.0" encoding="UTF-8"?>
<svg version="1.1" viewBox="0 0 2048 2048" width="1280" height="1280" xmlns="http://www.w3.org/2000/svg">
<path transform="translate(0)" d="m0 0h2048v2048h-2048z" fill="#F2F2F2"/>
<path transform="translate(953,425)" d="m0 0h12l28 4 65 12 58 11 73 14 87 17 106 20 63 12 20 5 10 4 12 9 10 12 7 15 1 3v14l-6 37-14 70-19 101-18 94-17 91-14 72-12 64-5 21-4 10-7 9-7 7-14 8-11 4h-19l-90-17-50-10-70-13-79-15-82-16-69-13-46-9-15-5-10-6-8-7-9-13-5-13v-20l9-51 12-63 14-72 8-42 7-37 20-104 9-46 13-70 10-49 5-17 6-11 9-9 14-8z" fill="#B2B2B2"/>
<path transform="translate(1009,504)" d="m0 0h17l29 5 72 14 51 10 63 12 72 14 50 10 15 5 9 6 7 7 6 12 1 3v9l-12 64-16 83-11 57-17 90-15 80-5 15-6 8-8 7-10 5-10 1-30-5-77-15-32-6-58-11-139-27-14-3-12-5-8-6-6-7-5-10v-15l6-36 7-38 16-87 11-57 9-47 13-70 6-31 5-18 7-11 10-8z" fill="#F3F3F3"/>
<path transform="translate(847,551)" d="m0 0 1 3-6 28-6 33-9 44-13 66-9 47-9 46-9 44-10 50-12 61-8 39-3 20v21l5 13 10 13 10 9 16 8 21 5 52 10 17 4-2 3-23 11-36 16-28 12-26 11-28 11-15 5h-16l-14-7-10-10-8-14-12-25-26-60-10-23-7-16-18-40-10-23-18-41-20-46-11-24-7-17-15-35-16-36-9-24-3-12 1-13 4-10 9-10 13-8 23-11 30-13 19-8 37-16 28-12 36-15 28-12 33-15 25-11 40-17z" fill="#ccc"/>
<path transform="translate(1346,785)" d="m0 0h1l-1 11-9 42-11 49-16 74-8 33-5 1-50-12-56-12-206-45-52-11-4-1 2-14 7-31 4-10 8-5 23-13 44-24 29-16 14-7 5 8 11 23 26 52 6 10 5-1 36-16 32-14 57-24 60-26 27-12 16-7z" fill="#B2B2B2"/>
<path transform="translate(734,1367)" d="m0 0h35l15 5 4 2v2l5 1v2l5 2 12 12v2h2l6 11 5 10 3 12v25l-4 16-10 18h-2l-2 4-9 9-13 9-12 5-13 3h-19l-9-2-9-3-13-7-8-5-5-5-8-10-8-14-1-8h-2l-2-9v-28l4-13 4-8 7-11 9-10 5-4 13-8 7-3 7-1z" fill="#929292"/>
<path transform="translate(1224,1596)" d="m0 0h78l12 1 9 6 5 5 2 5h2l4 8v22l-5 10-5 4-5 5-5 4 7 4v2l4 1 4 5 4 4 5 10v12l-1 9h-2l-1 7-9 10-3 1v2l-4 1v2h-5v2l-7 2h-84z" fill="#929292"/>
<path transform="translate(963,1368)" d="m0 0h36l2 1 8 19 5 13 4 9 10 24 7 18v5h2l2 3 4-8 7-15 5-12 4-10 4-8 10-25 6-14h36l1 1v143h-27v-102l-2 1-4 10-12 29-5 12-10 25-6 12-3 8-4 6h-7l-4-5-8-18-4-10-6-16-4-8-4-10-3-7v-5h-2v-5h-2l-7-18-1-4h-2v106h-26z" fill="#939393"/>
<path transform="translate(1187,1368)" d="m0 0h33l5 11 12 32 17 43 9 23v5h2v5h2v5h2l7 19v2h-25l-6-1-5-17-4-9h-66l-2 6h-2l-1 8-5 10-3 3h-23l-3-1 1-5 16-40h2l1-8 4-10 3-8h2l1-8h2l1-8 4-9 5-13h2l1-8 3-7 6-16z" fill="#939393"/>
<path transform="translate(1121,1595)" d="m0 0h31l6 12 1 8h2l1 8h2l2 5v5h2l9 23v5h2l13 33 1 8h2l8 20v5h2l2 5v6h2v2h-31l-1-1-2-12-1-1v-5h-2l-1-8h-69l-3 10-6 16-1 1h-26l1-6 2-8 7-19h2l1-8 5-11 6-17 12-30 1-3h2l1-7 7-18h2l1-8z" fill="#939393"/>
<path transform="translate(805,1595)" d="m0 0h32l5 12v5h2l11 28v5h2l8 21 3 7v5h2l4 11v5h2l7 18v5h2l7 21v2h-30l-1-8-1-1v-6h-2l-2-7v-5l-71 1v5h-2l-1 8-5 12-1 1h-27l1-8 1-2h2l1-7 11-28h2l1-8 9-22h2l1-8 4-10h2l1-8 5-11 7-20 5-12z" fill="#939393"/>
<path transform="translate(531,1595)" d="m0 0h33v4h2l6 17 5 12 4 10v5h2l16 41 7 18v5h2l2 5v5h2l7 17 2 6h-31l-1-9h-2v-6h-2l-4-10v-2h-68l-2 7h-2l-2 11-4 9h-27l1-8 11-27 4-10h2l1-8 6-15h2l1-7 7-18 4-10 10-26 3-8z" fill="#939393"/>
<path transform="translate(527,1368)" d="m0 0h27l10 14v2h2l6 9 18 24v2h2l1 4h2l7 11 13 17 3 4v2h2l1 4h2l4 6 1-99h26v145h-24l-4-5-3-3v-2h-2l-1-4h-2l-6-9-3-4v-2h-2l-7-11-14-19-13-18-10-13-1-3h-2l-6-8-1 100h-26z" fill="#929292"/>
<path transform="translate(1337,1367)" d="m0 0h32l10 3 12 6v2l5 2 11 10 3 4-2 4-4 3h-2v2h-3v2l-3 2-5-1-5-4-2-1v-2l-5-2-8-5-4-2-10-1h-12l-9 3-9 4h-3l-1 3-7 6-1 2h-2l-2 7-6 11-1 4v23l4 10 4 8 8 11 7 5 11 5 9 1h14l13-3 11-6 2-5 2-21h-42v-23h68v21l-1 35-7 6-3 3h-2v2l-3 2h-3v2l-14 7-8 1v2l-10 2h-18l-11-2-9-3-15-7v-2h-3v-2h-3l-5-5-8-9-9-15-5-15-1-6v-22l4-15 11-20h2l2-4 7-7 14-9 12-5z" fill="#929292"/>
<path transform="translate(1482,1595)" d="m0 0h54l42 1v14l-1 7h-73l1 39 71 1v21l-33 1h-23l-15-1v40l18-1h54v23h-98v-144z" fill="#949494"/>
<path transform="translate(1441,1370)" d="m0 0h99v20h-74v39h72v21h-72v41h74v21l-32 1h-67z" fill="#929292"/>
<path transform="translate(742,1389)" d="m0 0h19l13 4 5 3v2l5 2 9 11 4 7 2 9 1 9v9l-3 16-7 14-4 5h-2v2l-13 8-12 3h-13l-17-4-10-7-7-7-4-8v-2h-2l-3-11v-22l1-8 9-18h2l2-4 4-4h2v-2l11-5z" fill="#F2F2F2"/>
<path transform="translate(619,1595)" d="m0 0h20l4 9 4 11v5h2l3 10v3h2l4 12 5 11 10 27v5h2l6 17v5l3 1 4-13h2l2-11h2l1-8 6-16 4-10 1-3h2l1-8h2l1-8 5-13 2-6h2l2-11 4-9h28l-2 9-5 13-5 12-1 3h-2l-1 7-6 16-4 10-1 3h-2l-1 7-12 31-13 33-1 1h-32l-3-6v-5h-2l-13-34v-5h-2l-6-15-5-13-6-16-5-11-3-8v-5h-2l-7-19-1-7z" fill="#939393"/>
<path transform="translate(1366,1596)" d="m0 0h27v120l62 1v23h-89z" fill="#949494"/>
<path transform="translate(965,1595)" d="m0 0h26l1 4-1 119h63v22h-89l-1-144z" fill="#939393"/>
<path transform="translate(906,1368)" d="m0 0h26v145h-26z" fill="#939393"/>
<path transform="translate(909,1595)" d="m0 0h24l1 1v144h-26v-144z" fill="#949494"/>
<path transform="translate(1249,1617)" d="m0 0h51v2l5 1 2 7h2l1 3v13h-2l-2 6-6 5-1 2h-50z" fill="#EFEFEF"/>
<path transform="translate(1250,1679)" d="m0 0 53 1 5 5 4 5 1 2v13l-4 7-6 4-7 1h-46z" fill="#F3F3F3"/>
<path transform="translate(545,1622)" d="m0 0h2l7 15 9 23v3h2l4 13 4 12v2h-52l1-4 3-10 5-12 6-15 5-13 3-8z" fill="#F1F1F1"/>
<path transform="translate(820,1623)" d="m0 0 3 2 10 27 7 18v3h2l4 15-1 1h-50l3-11 3-10h2l1-6 5-14 4-9 1-5h2l1-5z" fill="#F2F2F2"/>
<path transform="translate(1134,1622)" d="m0 0 3 1 5 10 5 15v3h2v5h2l1 8h2l2 11h2l3 14h-50l3-11 13-35 6-14z" fill="#F2F2F2"/>
<path transform="translate(1201,1396)" d="m0 0h3l6 13 3 9v3h2l4 13 1 5h2l5 17 1 5h-50l3-11 11-28 8-21z" fill="#F2F2F2"/>
<path transform="translate(946,427)" d="m0 0 4 1 1 4 4 2 1 2 2-1 13-1 5-1 3 2 7 1 7 3v2h2l1 3 4 1 3-1h9l2-1 3 4v4l-1 3-7-1-3-6-2 4-5 2-5 3-3-1v-5h-3l-2 4-3 2v-2l-7-1-2 1v-2l-10-1v2h-2v2h-6-3l-6 1-5 1-1-5 2-10 1-6-1-3-4-3z" fill="#ccc"/>
<path transform="translate(988,429)" d="m0 0 11 1 75 14 73 14 93 18-3 2-5-1h-8l-8-1-6-2-5-1h-12l-4-2v-2l-16-1-5-2-13-1-3-2v-2h-19l-3-3h-13l-5-2v-2h-12l-5 1-6-3v-2h-14l-10-3h-9l-3-1v-2l-11-1h-6l-4-2v-2h-12l-4 1-3-3v-2h-6v-2l-3 1h-8l-2-1v-2l-6-1z" fill="#CDCDCD"/>
<path transform="translate(1240,477)" d="m0 0 11 1 184 35-4 2-12-2-1-1h-7l-10-2-7-2-13-2-7-1-13-3-9-2-13-2-17-3-12-3-16-3-13-3-18-2-5-1-4 1-4-3-7-1z" fill="#CDCDCD"/>
<path transform="translate(1251,1676)" d="m0 0h44l7 2 1 2h-49l-4-1v38h-1v-40z" fill="#BEBEBE"/>
<path transform="translate(1228,1458)" d="m0 0 2 3v3h-52l-2-2 2-3v2h50z" fill="#C2C2C2"/>
<path transform="translate(1018,446)" d="m0 0 5 1v2l8-1 2 2-1 2h2v-2l4-1 2 2-1 6-3 1v-2l-3 1-4-2-2 2-5 1-2-1-1-8 2-1h-3z" fill="#ccc"/>
<path transform="translate(1089,1405)" d="m0 0 3 1-1 37-1 69h-1v-102l-1-3z" fill="#C7C7C7"/>
<path transform="translate(1089,1405)" d="m0 0 3 1-1 37h-1l-1-33-1-3z" fill="#B5B5B5"/>
</svg>
