<svg xmlns="http://www.w3.org/2000/svg">
  <symbol id="check" width="20" height="20" viewBox="0 0 20 20" fill="none">
    <path fill-rule="evenodd" clip-rule="evenodd" d="M13.9374 7.80505L9.75011 13.3051C9.57778 13.5315 9.31103 13.6653 9.02686 13.6671H9.02044C8.73903 13.6671 8.47319 13.537 8.29903 13.3151L6.06969 10.4671C5.75803 10.0692 5.82769 9.49263 6.22644 9.18097C6.62428 8.86838 7.20178 8.93805 7.51344 9.33772L9.01036 11.2499L12.479 6.69497C12.7852 6.29255 13.3599 6.21372 13.7642 6.5208C14.1666 6.82788 14.2445 7.40263 13.9374 7.80505ZM10.0004 0.833801C4.93761 0.833801 0.833694 4.93772 0.833694 10.0005C0.833694 15.0623 4.93761 19.1671 10.0004 19.1671C15.0631 19.1671 19.167 15.0623 19.167 10.0005C19.167 4.93772 15.0631 0.833801 10.0004 0.833801Z" fill="#ABBBC2"/>
  </symbol>
  <symbol id="close" width="21" height="21" viewBox="0 0 21 21" fill="none">
    <g filter="url(#filter0_d_512_5711)">
    <path d="M5.3033 1.30327L10.6066 6.60657M15.9099 11.9099L10.6066 6.60657M10.6066 6.60657L15.9099 1.30327M10.6066 6.60657L5.3033 11.9099" stroke="#FAFAFA" stroke-width="1.8" stroke-linecap="round" stroke-linejoin="round"/>
    </g>
    <defs>
    <filter id="filter0_d_512_5711" x="0.403305" y="0.403259" width="20.4066" height="20.4066" filterUnits="userSpaceOnUse" color-interpolation-filters="sRGB">
    <feFlood flood-opacity="0" result="BackgroundImageFix"/>
    <feColorMatrix in="SourceAlpha" type="matrix" values="0 0 0 0 0 0 0 0 0 0 0 0 0 0 0 0 0 0 127 0" result="hardAlpha"/>
    <feOffset dy="4"/>
    <feGaussianBlur stdDeviation="2"/>
    <feComposite in2="hardAlpha" operator="out"/>
    <feColorMatrix type="matrix" values="0 0 0 0 0 0 0 0 0 0 0 0 0 0 0 0 0 0 0.25 0"/>
    <feBlend mode="normal" in2="BackgroundImageFix" result="effect1_dropShadow_512_5711"/>
    <feBlend mode="normal" in="SourceGraphic" in2="effect1_dropShadow_512_5711" result="shape"/>
    </filter>
    </defs>
  </symbol>
  <symbol id="down-arrow" width="12" height="6" viewBox="0 0 12 6" fill="none">
    <path fill-rule="evenodd" clip-rule="evenodd" d="M6.00001 5.83334C5.81001 5.83334 5.62084 5.76917 5.46667 5.64001L0.466672 1.47334C0.113339 1.17917 0.0650056 0.65334 0.360006 0.300007C0.654172 -0.0533266 1.17917 -0.100827 1.53334 0.19334L6.00917 3.92334L10.4775 0.327507C10.8358 0.0391735 11.3608 0.0958401 11.6492 0.454174C11.9375 0.812507 11.8808 1.33667 11.5225 1.62584L6.52251 5.64917C6.37001 5.77167 6.18501 5.83334 6.00001 5.83334Z" fill="white"/>
  </symbol>
  <symbol id="edit" width="16" height="16" viewBox="0 0 16 16" fill="none">
    <path d="M14.9512 14.0074C15.2543 14.0074 15.5 14.2483 15.5 14.5454C15.5 14.8177 15.2935 15.0428 15.0257 15.0784L14.9512 15.0833H9.22583C8.92274 15.0833 8.67705 14.8425 8.67705 14.5454C8.67705 14.273 8.8835 14.048 9.15136 14.0124L9.22583 14.0074H14.9512ZM9.38269 1.6805C10.4217 0.66204 12.1069 0.66204 13.1459 1.6805L14.2245 2.73782C15.2635 3.75628 15.2635 5.4082 14.2245 6.42666L6.11717 14.3738C5.65359 14.8282 5.02506 15.0832 4.36901 15.0832H1.04878C0.740346 15.0832 0.492487 14.8341 0.500174 14.5319L0.583693 11.2479C0.600298 10.6272 0.859392 10.0354 1.30722 9.59644L9.38269 1.6805ZM8.755 3.81582L2.08332 10.3572C1.83438 10.6012 1.69012 10.9307 1.68089 11.2754L1.61121 14.007L4.36901 14.0074C4.69352 14.0074 5.00559 13.8954 5.2519 13.6931L5.34108 13.6131L12.0458 7.04082L8.755 3.81582ZM12.3698 2.44127C11.7594 1.84296 10.7691 1.84296 10.1588 2.44127L9.53167 3.05499L12.8217 6.27999L13.4484 5.6659C14.0249 5.10083 14.0569 4.20359 13.5445 3.60162L13.4484 3.49858L12.3698 2.44127Z" fill="#EA7C69"/>
  </symbol>
  <symbol id="ellipse" width="4" height="4" viewBox="0 0 4 4" fill="none">
    <circle cx="2" cy="2" r="2" fill="#C4C4C4"/>
  </symbol>
  <symbol id="find" width="16" height="16" viewBox="0 0 16 16" fill="none">
    <path fill-rule="evenodd" clip-rule="evenodd" d="M2.16667 7.16667C2.16667 4.40917 4.40917 2.16667 7.16667 2.16667C9.92417 2.16667 12.1667 4.40917 12.1667 7.16667C12.1667 9.92417 9.92417 12.1667 7.16667 12.1667C4.40917 12.1667 2.16667 9.92417 2.16667 7.16667ZM15.2558 14.0775L12.4267 11.2475C13.3042 10.1192 13.8333 8.705 13.8333 7.16667C13.8333 3.49083 10.8425 0.5 7.16667 0.5C3.49083 0.5 0.5 3.49083 0.5 7.16667C0.5 10.8425 3.49083 13.8333 7.16667 13.8333C8.705 13.8333 10.1192 13.3042 11.2475 12.4267L14.0775 15.2558C14.24 15.4183 14.4533 15.5 14.6667 15.5C14.88 15.5 15.0933 15.4183 15.2558 15.2558C15.5817 14.93 15.5817 14.4033 15.2558 14.0775Z" fill="white"/>
  </symbol>
  <symbol id="plus" width="20" height="20" viewBox="0 0 20 20" fill="none">
    <path d="M10 2.5V10M10 17.5V10M10 10H17.5M10 10H2.5" stroke="#EA7C69" stroke-width="1.8" stroke-linecap="round" stroke-linejoin="round"/>
  </symbol>
</svg>